<?xml version="1.0" encoding="utf-8"?>
<!-- Generator: Adobe Illustrator 17.0.0, SVG Export Plug-In . SVG Version: 6.00 Build 0)  -->
<!DOCTYPE svg PUBLIC "-//W3C//DTD SVG 1.1//EN" "http://www.w3.org/Graphics/SVG/1.1/DTD/svg11.dtd">
<svg version="1.1" id="Isolation_Mode" xmlns="http://www.w3.org/2000/svg" xmlns:xlink="http://www.w3.org/1999/xlink" x="0px"
	 y="0px" width="29px" height="34.2px" viewBox="0 0 29 34.2" enable-background="new 0 0 29 34.2" xml:space="preserve">
<g>
	<g>
		<g>
			<path fill="#704391" d="M20.3,23.1c-0.4-0.8-1-1.4-1.7-1.7c-0.7-0.3-1.6-0.2-2.4,0.2l-2.6,1.2c-0.1-0.1-0.3-0.3-0.4-0.4
				c-0.2-0.2-0.3-0.4-0.5-0.5c-1.4-1.8-2.5-3.9-3.3-6.4c-0.4-1.2-0.6-2.2-0.7-3.2c0.7-0.3,1.3-0.6,1.9-0.9c0.2-0.1,0.5-0.2,0.7-0.3
				c1.7-0.8,2.3-2.5,1.5-4.2l-1.1-2.3c-0.1-0.2-0.2-0.5-0.3-0.8c-0.2-0.5-0.5-1-0.7-1.5C10.3,1.6,9.7,1,9,0.7
				C8.2,0.5,7.4,0.5,6.6,0.9l0,0L3.8,2.2C2.7,2.7,1.9,3.5,1.4,4.6C0.6,6.3,0.6,8.1,0.6,9.3c0,3,0.6,6,1.8,9.4
				c1.5,4.1,3.8,7.8,6.8,10.9c1.2,1.2,2.7,2.6,4.8,3.5c0.1,0.1,0.2,0.1,0.4,0.2c1.4,0.5,2.8,0.4,4-0.2c0,0,0,0,0,0
				c0.5-0.3,0.9-0.5,1.5-0.7c0.3-0.1,0.7-0.3,1.1-0.5c0.8-0.4,1.4-1,1.7-1.8c0.3-0.8,0.2-1.6-0.2-2.4L20.3,23.1z M20.2,30.3
				C20.2,30.3,20.2,30.3,20.2,30.3c-0.3,0.2-0.7,0.3-1,0.5c-0.5,0.2-1.1,0.5-1.6,0.8c-0.8,0.4-1.7,0.5-2.6,0.1
				c-0.1,0-0.2-0.1-0.3-0.1c-1.8-0.8-3.2-2.1-4.2-3.1c-2.8-2.9-5-6.4-6.4-10.2c-1.2-3.2-1.7-6-1.7-8.8c0-1.7,0.2-3,0.7-4
				c0.3-0.7,0.8-1.2,1.5-1.5l2.8-1.3c0.4-0.2,0.8-0.2,1.1-0.1C8.8,2.5,9,2.9,9.1,3.1l0,0c0.3,0.5,0.5,1,0.7,1.5
				c0.1,0.3,0.2,0.5,0.4,0.8l1.1,2.2c0.4,0.9,0.2,1.5-0.7,1.9c-0.2,0.1-0.5,0.2-0.7,0.3c-0.7,0.3-1.4,0.6-2.1,0.9c0,0,0,0,0,0
				C7.1,11.2,7,11.7,7,12.1v0.1c0.1,1.2,0.3,2.4,0.8,3.9l0,0c0.9,2.7,2.1,4.9,3.6,6.8c0.2,0.2,0.4,0.5,0.6,0.7
				c0.2,0.2,0.3,0.4,0.5,0.5c0,0,0,0,0.1,0.1c0.2,0.2,0.3,0.3,0.5,0.4c0.5,0.2,0.9,0,1.1-0.1l2.8-1.3c0.3-0.1,0.7-0.3,1.1-0.1
				c0.4,0.1,0.6,0.5,0.7,0.8l2.1,4.6C21.3,29.2,21,29.9,20.2,30.3L20.2,30.3z M20.2,30.3"/>
			<path fill="#704391" d="M16.1,34.2L16.1,34.2c-0.7,0-1.3-0.1-2-0.4c-0.1,0-0.3-0.1-0.4-0.2c-2.1-0.9-3.8-2.4-4.9-3.6
				c-3.1-3.1-5.4-6.9-6.9-11.1C0.6,15.5,0,12.4,0,9.3c0-1.3,0.1-3.2,0.9-5c0.6-1.2,1.4-2.1,2.6-2.6l2.8-1.3c1-0.4,2-0.5,2.8-0.2
				c0.9,0.3,1.6,1,2,1.9c0.3,0.5,0.5,1,0.7,1.5c0.1,0.2,0.2,0.4,0.3,0.6l1.1,2.4c0.9,2,0.2,4-1.8,5l-0.9,0.4
				c-0.4,0.2-0.9,0.4-1.3,0.6c0.1,0.8,0.3,1.6,0.6,2.6c0.8,2.4,1.9,4.4,3.2,6.2c0.1,0.2,0.3,0.3,0.4,0.5c0,0,0.1,0.1,0.1,0.1l2.2-1
				c0.9-0.4,1.9-0.5,2.8-0.2c0.9,0.3,1.6,1,2,2l2.1,4.5c0.5,1,0.5,1.9,0.2,2.8c-0.3,0.9-1,1.6-2,2.1c-0.4,0.2-0.7,0.4-1.1,0.5
				L19.8,33c-0.4,0.2-0.8,0.4-1.1,0.6C17.8,34,17,34.2,16.1,34.2z M8,1.1c-0.4,0-0.8,0.1-1.2,0.3L4,2.7C3.1,3.2,2.4,3.9,1.9,4.8
				C1.2,6.4,1.1,8.2,1.1,9.3c0,2.9,0.6,5.9,1.8,9.2c1.5,4.1,3.7,7.6,6.7,10.7c1.1,1.1,2.6,2.5,4.6,3.4c0.1,0.1,0.2,0.1,0.3,0.1
				c0.5,0.2,1.1,0.3,1.6,0.3l0,0c0.6,0,1.3-0.2,1.9-0.5l0.2-0.1c0.3-0.2,0.7-0.4,1.2-0.6l0.3-0.1c0.4-0.2,0.7-0.3,1.1-0.5
				c0.7-0.4,1.2-0.8,1.4-1.4c0.2-0.6,0.2-1.3-0.2-2l-2.1-4.6c-0.3-0.7-0.8-1.2-1.4-1.4c-0.6-0.2-1.3-0.2-2,0.2l-3,1.4l-0.3-0.3
				c-0.1-0.1-0.2-0.3-0.4-0.4c-0.2-0.2-0.4-0.4-0.5-0.6c-1.4-1.9-2.5-4-3.4-6.5c-0.4-1.3-0.6-2.3-0.7-3.3l0-0.4l0.4-0.2
				c0.6-0.2,1.1-0.5,1.7-0.8l0.9-0.4c1.4-0.7,1.9-2,1.2-3.4l-1.1-2.3c-0.2-0.3-0.3-0.6-0.4-0.8c-0.2-0.5-0.4-1-0.7-1.5
				C9.9,2,9.4,1.5,8.8,1.3C8.5,1.2,8.3,1.1,8,1.1z M16.1,32.5c-0.4,0-0.9-0.1-1.4-0.3c-0.2-0.1-0.2-0.1-0.3-0.1
				c-1.8-0.8-3.3-2.2-4.4-3.2c-2.9-3-5.1-6.5-6.5-10.4c-1.2-3.3-1.7-6.2-1.7-9c0-1.8,0.2-3.1,0.7-4.3c0.4-0.8,1-1.4,1.8-1.8L7.1,2
				c0.6-0.2,1.1-0.3,1.5-0.1C9,2,9.4,2.4,9.6,2.9c0.2,0.5,0.5,0.9,0.7,1.5l1.4,3.1c0.5,1.2,0.2,2.1-1,2.6l-0.7,0.3
				c-0.7,0.3-1.4,0.7-2.1,0.9c-0.4,0.2-0.5,0.4-0.5,0.8c0,1.2,0.3,2.3,0.8,3.8c0.9,2.6,2.1,4.8,3.5,6.7c0.2,0.2,0.3,0.4,0.5,0.6
				c0.3,0.3,0.4,0.5,0.6,0.6c0.1,0.1,0.2,0.2,0.3,0.3c0.3,0.1,0.6,0,0.6-0.1l2.8-1.3c0.3-0.2,1-0.3,1.5-0.1c0.6,0.2,0.9,0.8,1,1.1
				l2.1,4.5c0.5,1.1,0.2,2.1-1,2.6c-0.2,0.1-0.5,0.2-0.8,0.4l-0.3,0.1c-0.5,0.2-1,0.5-1.6,0.8C17.3,32.3,16.7,32.5,16.1,32.5z
				 M8,2.9c-0.1,0-0.3,0-0.5,0.1L4.7,4.3C4.2,4.6,3.8,5,3.5,5.5c-0.5,1-0.7,2.2-0.6,3.8c0,2.7,0.6,5.5,1.7,8.7
				c1.4,3.8,3.5,7.2,6.3,10c1,1,2.3,2.3,4,3c0.1,0,0.2,0.1,0.2,0.1c0.9,0.3,1.5,0.3,2.2-0.1c0.5-0.3,1.1-0.6,1.6-0.8l0.3-0.1
				c0.1-0.1,0.3-0.1,0.4-0.2v-0.2H20c0.5-0.3,0.6-0.6,0.3-1.1L18.2,24c-0.1-0.1-0.2-0.4-0.4-0.5c-0.2-0.1-0.4,0-0.6,0.1L14.3,25
				c-0.5,0.2-1,0.3-1.5,0.1c-0.3-0.1-0.5-0.3-0.8-0.5c-0.2-0.2-0.4-0.4-0.5-0.6c-0.3-0.3-0.5-0.5-0.7-0.8c-1.5-2-2.7-4.3-3.7-7
				c-0.5-1.6-0.8-2.9-0.8-4.1c0-0.4,0.1-1.4,1.1-1.9C8.3,10,8.9,9.7,9.6,9.4L10.3,9c0.6-0.3,0.7-0.5,0.4-1.1L9.3,4.9
				c-0.2-0.5-0.4-1-0.7-1.5C8.5,3.2,8.4,3,8.2,2.9C8.2,2.9,8.1,2.9,8,2.9z"/>
		</g>
		<g>
			<path fill="#704391" d="M17.1,9.5c1.5,0.8,2.7,2.1,3.4,3.7c0.7,1.6,1,3.3,0.6,5c-0.1,0.4,0.2,0.8,0.6,1c0,0,0.1,0,0.1,0
				c0.5,0.1,0.9-0.2,1-0.7c0.4-2,0.1-4.1-0.8-6C21.2,10.6,19.8,9.1,18,8c-0.4-0.2-0.9-0.1-1.2,0.3C16.6,8.8,16.7,9.3,17.1,9.5
				L17.1,9.5z M17.1,9.5"/>
			<path fill="#704391" d="M22,19.8L22,19.8c-0.1,0-0.2,0-0.3,0c-0.1,0-0.2,0-0.3-0.1c-0.6-0.2-1-0.9-0.8-1.6
				c0.3-1.6,0.1-3.2-0.6-4.6c-0.7-1.5-1.8-2.6-3.2-3.4c-0.3-0.2-0.6-0.5-0.7-0.8c-0.1-0.4-0.1-0.8,0.1-1.1c0.4-0.7,1.3-0.9,2-0.5
				c1.9,1.1,3.4,2.7,4.3,4.7c0.9,2,1.2,4.2,0.8,6.3C23.3,19.3,22.7,19.8,22,19.8z M21.9,18.6l0.2,0l0,0c0.1,0,0.3-0.1,0.3-0.2
				c0.4-1.9,0.1-3.9-0.7-5.7c-0.8-1.8-2.2-3.2-3.9-4.2c-0.1-0.1-0.3,0-0.4,0.1c0,0.1,0,0.2,0,0.2c0,0,0,0.1,0.1,0.2
				C19,10,20.2,11.3,21,13c0.8,1.7,1,3.5,0.7,5.3C21.7,18.4,21.8,18.6,21.9,18.6C22,18.6,21.9,18.6,21.9,18.6z"/>
		</g>
		<g>
			<path fill="#704391" d="M28.2,20.1c0.6-3.4,0.2-6.8-1.3-9.9c-1.5-3.1-3.8-5.7-6.8-7.3c-0.4-0.2-0.9-0.1-1.2,0.3
				c-0.2,0.4-0.1,0.9,0.3,1.2c2.7,1.5,4.7,3.8,6,6.6c1.3,2.8,1.7,5.9,1.2,8.8c-0.1,0.4,0.2,0.8,0.6,1c0,0,0.1,0,0.2,0
				C27.6,20.9,28.1,20.6,28.2,20.1L28.2,20.1z M28.2,20.1"/>
			<path fill="#704391" d="M27.3,21.4L27.3,21.4c-0.1,0-0.2,0-0.3,0c0,0-0.1,0-0.3-0.1c-0.6-0.2-1-0.9-0.9-1.6
				c0.5-2.9,0.1-5.8-1.1-8.5c-1.3-2.7-3.3-4.9-5.8-6.3c-0.7-0.4-0.9-1.3-0.6-2c0.4-0.7,1.3-0.9,2-0.5c3.1,1.7,5.5,4.4,7,7.6
				c1.5,3.2,2,6.8,1.3,10.2C28.6,20.9,28,21.4,27.3,21.4z M19.7,3.4c-0.1,0-0.2,0.1-0.3,0.1c-0.1,0.1,0,0.3,0.1,0.4
				c2.7,1.6,4.9,3.9,6.3,6.8c1.4,2.9,1.8,6.1,1.2,9.2c0,0.1,0.1,0.3,0.2,0.3l0.1,0c0.1,0,0.2-0.1,0.3-0.2c0.6-3.2,0.1-6.5-1.2-9.5
				c-1.4-3-3.7-5.5-6.5-7.1C19.8,3.4,19.7,3.4,19.7,3.4z"/>
		</g>
	</g>
</g>
</svg>
